<svg version="1.1" x="0px" y="0px" viewBox="0 0 100 125" style="enable-background:new 0 0 100 100;" xml:space="preserve">
  <g>
    <path d="M5273.1,2400.1v-2c0-2.8-5-4-9.7-4s-9.7,1.3-9.7,4v2c0,1.8,0.7,3.6,2,4.9l5,4.9c0.3,0.3,0.4,0.6,0.4,1v6.4     c0,0.4,0.2,0.7,0.6,0.8l2.9,0.9c0.5,0.1,1-0.2,1-0.8v-7.2c0-0.4,0.2-0.7,0.4-1l5.1-5C5272.4,2403.7,5273.1,2401.9,5273.1,2400.1z      M5263.4,2400c-4.8,0-7.4-1.3-7.5-1.8v0c0.1-0.5,2.7-1.8,7.5-1.8c4.8,0,7.3,1.3,7.5,1.8C5270.7,2398.7,5268.2,2400,5263.4,2400z"/>
    <path d="M5268.4,2410.3c-0.6,0-1,0.4-1,1c0,0.6,0.4,1,1,1h4.3c0.6,0,1-0.4,1-1c0-0.6-0.4-1-1-1H5268.4z"/><path d="M5272.7,2413.7h-4.3c-0.6,0-1,0.4-1,1c0,0.6,0.4,1,1,1h4.3c0.6,0,1-0.4,1-1C5273.7,2414.1,5273.3,2413.7,5272.7,2413.7z"/><path d="M5272.7,2417h-4.3c-0.6,0-1,0.4-1,1c0,0.6,0.4,1,1,1h4.3c0.6,0,1-0.4,1-1C5273.7,2417.5,5273.3,2417,5272.7,2417z"/></g><g><path d="M50,2.5c-11.7,0-21.2,9.5-21.2,21.2v20.2c0,11.7,9.5,21.2,21.2,21.2s21.2-9.5,21.2-21.2V23.7C71.2,12,61.7,2.5,50,2.5z      M65.2,43.9c0,8.4-6.8,15.2-15.2,15.2s-15.2-6.8-15.2-15.2V23.7c0-8.4,6.8-15.2,15.2-15.2s15.2,6.8,15.2,15.2V43.9z"/><path d="M50,15.1c-1.7,0-3,1.3-3,3v8.1c0,1.7,1.3,3,3,3s3-1.3,3-3v-8.1C53,16.5,51.7,15.1,50,15.1z"/><path d="M56.2,69.6L50,75.9l-6.2-6.2c-1.2-1.2-3.1-1.2-4.3,0c-1.2,1.2-1.2,3.1,0,4.3l8.4,8.4c0.6,0.6,1.4,0.9,2.1,0.9     s1.5-0.3,2.1-0.9l8.4-8.4c1.2-1.2,1.2-3.1,0-4.3C59.3,68.5,57.4,68.5,56.2,69.6z"/><path d="M56.2,84L50,90.2L43.8,84c-1.2-1.2-3.1-1.2-4.3,0c-1.2,1.2-1.2,3.1,0,4.3l8.4,8.4c0.6,0.6,1.4,0.9,2.1,0.9     s1.5-0.3,2.1-0.9l8.4-8.4c1.2-1.2,1.2-3.1,0-4.3C59.3,82.8,57.4,82.8,56.2,84z"/>
  </g>
</svg>
